<svg width="68" height="64" viewBox="0 0 68 64" fill="none" xmlns="http://www.w3.org/2000/svg">
<path d="M46.8989 5.05371V42.0114C46.8989 44.3813 44.9776 46.3024 42.6078 46.3024H5.05481C2.68489 46.3024 0.763794 44.3812 0.763794 42.0114V5.05371C0.763794 2.68379 2.68503 0.762695 5.05481 0.762695H42.6078C44.9776 0.762695 46.8989 2.68393 46.8989 5.05371Z" fill="#B8DAFF"/>
<path d="M52.8273 10.855V47.8127C52.8273 50.1826 50.9061 52.1037 48.5363 52.1037H10.9833C8.61336 52.1037 6.69226 50.1825 6.69226 47.8127V10.855C6.69226 8.48506 8.61349 6.56396 10.9833 6.56396H48.5363C50.9061 6.56396 52.8273 8.4852 52.8273 10.855Z" fill="#FEFDFE"/>
<path d="M48.6106 12.5705V41.5414C48.6106 42.635 47.724 43.5216 46.6304 43.5216H12.889C11.7954 43.5216 10.9088 42.635 10.9088 41.5414V12.5705C10.9088 11.4769 11.7954 10.5903 12.889 10.5903H46.6304C47.724 10.5903 48.6106 11.4769 48.6106 12.5705Z" fill="#FEFDFE"/>
<path d="M10.9088 40.6446L21.6305 27.7006C22.0539 27.1895 22.5845 26.7777 23.1848 26.4944C23.785 26.2112 24.4402 26.0634 25.104 26.0615C25.7677 26.0597 26.4237 26.2038 27.0255 26.4837C27.6274 26.7636 28.1603 27.1724 28.5865 27.6811L36.39 36.9956C36.5069 37.1353 36.6742 37.2233 36.8555 37.2408C37.0368 37.2582 37.2178 37.2037 37.3592 37.0889L41.1367 34.0237C41.4466 33.7723 41.8035 33.5852 42.1865 33.4734C42.5695 33.3616 42.971 33.3273 43.3674 33.3725C43.7638 33.4177 44.1473 33.5415 44.4953 33.7366C44.8433 33.9318 45.1489 34.1944 45.3943 34.5091L48.6107 38.6356V41.5417C48.5365 42.8531 47.726 43.346 46.6305 43.5219H12.889C11.3874 43.4631 10.8281 42.3961 10.9088 40.6446Z" fill="#B8DAFF"/>
<path d="M41.2391 22.3277C42.5468 21.0201 42.5468 18.8999 41.2391 17.5922C39.9314 16.2845 37.8112 16.2845 36.5035 17.5922C35.1958 18.8999 35.1958 21.0201 36.5035 22.3277C37.8112 23.6354 39.9314 23.6354 41.2391 22.3277Z" fill="#B8DAFF"/>
<path d="M65.7625 51.0504C66.9209 43.8986 62.0622 37.1618 54.9104 36.0035C47.7585 34.8451 41.0218 39.7038 39.8635 46.8556C38.7051 54.0075 43.5638 60.7442 50.7156 61.9025C57.8675 63.0609 64.6042 58.2022 65.7625 51.0504Z" fill="#FEFDFE"/>
<path d="M61.596 48.9583C61.596 49.5571 61.3489 50.1037 60.9544 50.4982C60.7534 50.7023 60.5136 50.8643 60.2492 50.9744C59.9847 51.0846 59.7009 51.1408 59.4145 51.1398H55.0087V55.5456C55.0087 56.7481 54.0297 57.7271 52.8272 57.7271C52.5407 57.7281 52.2569 57.6719 51.9925 57.5617C51.728 57.4515 51.4882 57.2896 51.2873 57.0855C50.8927 56.691 50.6456 56.1445 50.6456 55.5456V51.1398H46.2399C45.0375 51.1398 44.0583 50.1608 44.0583 48.9583C44.0584 48.6713 44.115 48.3871 44.2251 48.122C44.3352 47.8569 44.4966 47.6162 44.7 47.4137C44.9019 47.2111 45.1419 47.0505 45.4062 46.9411C45.6705 46.8318 45.9539 46.7759 46.2399 46.7767H50.6458V42.371C50.6458 41.1685 51.6248 40.1895 52.8273 40.1895C53.4309 40.1895 53.9727 40.4319 54.3672 40.8311C54.7618 41.2256 55.0088 41.7721 55.0088 42.371V46.7769H59.4146C60.617 46.7769 61.596 47.7511 61.596 48.9583Z" fill="#B8DAFF"/>
<path d="M5.05658 47.0681H5.9274V47.8115C5.9274 50.5998 8.19579 52.8682 10.9841 52.8682H36.965C37.0654 52.8682 37.1647 52.8485 37.2574 52.8101C37.35 52.7717 37.4343 52.7154 37.5052 52.6445C37.5761 52.5736 37.6324 52.4894 37.6708 52.3967C37.7091 52.304 37.7289 52.2047 37.7289 52.1044C37.7289 52.004 37.7091 51.9047 37.6708 51.812C37.6324 51.7194 37.5761 51.6351 37.5052 51.5642C37.4343 51.4933 37.35 51.437 37.2574 51.3986C37.1647 51.3603 37.0654 51.3405 36.965 51.3405H10.9841C9.0382 51.3405 7.45505 49.7574 7.45505 47.8115V10.8567C7.45505 8.91078 9.0382 7.32763 10.9841 7.32763H48.535C50.4806 7.32763 52.0638 8.91078 52.0638 10.8567V32.7842C52.0638 32.8845 52.0835 32.9839 52.1219 33.0766C52.1603 33.1692 52.2165 33.2534 52.2875 33.3244C52.3584 33.3953 52.4426 33.4516 52.5353 33.4899C52.628 33.5283 52.7273 33.5481 52.8276 33.5481C52.9279 33.5481 53.0273 33.5283 53.1199 33.4899C53.2126 33.4516 53.2968 33.3953 53.3678 33.3244C53.4387 33.2534 53.495 33.1692 53.5333 33.0766C53.5717 32.9839 53.5915 32.8845 53.5914 32.7842V10.8567C53.5914 8.06838 51.3231 5.79999 48.5349 5.79999H47.6639V5.05151C47.6639 2.26612 45.3955 5.89068e-09 42.6073 5.89068e-09H5.05658C2.26839 -0.000133413 0 2.26612 0 5.05151V42.0116C0 44.7997 2.26839 47.0681 5.05658 47.0681ZM1.52765 5.05151C1.52765 3.10853 3.1108 1.52765 5.05644 1.52765H42.6073C44.553 1.52765 46.1361 3.10853 46.1361 5.05151V5.79999H10.9841C8.19579 5.79999 5.9274 8.06838 5.9274 10.8567V45.5404H5.05658C3.11093 45.5404 1.52778 43.9573 1.52778 42.0116L1.52765 5.05151Z" fill="#3F8CF4"/>
<path d="M48.6113 34.1084C48.7116 34.1084 48.8109 34.0886 48.9036 34.0503C48.9963 34.0119 49.0805 33.9556 49.1514 33.8847C49.2223 33.8138 49.2786 33.7295 49.317 33.6369C49.3554 33.5442 49.3751 33.4449 49.3751 33.3445V12.573C49.3751 11.1056 48.2023 9.82812 46.6303 9.82812H12.8886C11.3751 9.82812 10.1438 11.0594 10.1438 12.573V40.6468C10.3595 42.8502 10.6166 44.1583 12.8449 44.2865C12.8593 44.2872 12.8737 44.2877 12.888 44.2877H37.5914C37.6917 44.2877 37.791 44.268 37.8837 44.2296C37.9764 44.1912 38.0606 44.1349 38.1315 44.064C38.2025 43.9931 38.2587 43.9089 38.2971 43.8162C38.3355 43.7235 38.3552 43.6242 38.3552 43.5239C38.3552 43.4236 38.3355 43.3242 38.2971 43.2316C38.2587 43.1389 38.2025 43.0547 38.1315 42.9837C38.0606 42.9128 37.9764 42.8565 37.8837 42.8182C37.791 42.7798 37.6917 42.76 37.5914 42.76L12.9324 42.7612C11.3335 42.6696 11.7346 41.0898 11.6714 40.9219L22.2203 28.1894C23.7407 26.3535 26.5255 26.3956 28.0025 28.1722L35.8053 37.4875C36.3178 38.0959 37.2318 38.1799 37.8385 37.6801L41.616 34.6151C42.0121 34.2949 42.5143 34.1182 43.0301 34.1182C43.7167 34.1182 44.3735 34.439 44.7831 34.9707L44.8291 35.0316C44.9524 35.1898 45.133 35.2932 45.3318 35.3195C45.5307 35.3457 45.7319 35.2926 45.892 35.1718C46.0521 35.0509 46.1582 34.872 46.1875 34.6735C46.2168 34.4751 46.1668 34.2731 46.0484 34.1112L45.9977 34.0443C45.2965 33.134 44.1871 32.5907 43.0301 32.5907C42.1658 32.5907 41.3223 32.8878 40.6546 33.4282L36.9295 36.4505L29.1753 27.1934C27.1029 24.7005 23.187 24.6279 21.0437 27.2147L11.6714 38.5273V12.573C11.6714 11.9019 12.2175 11.3558 12.8886 11.3558H46.6303C47.3092 11.3558 47.8475 11.9072 47.8475 12.573V33.3445C47.8474 33.4449 47.8672 33.5442 47.9056 33.6369C47.9439 33.7295 48.0002 33.8138 48.0711 33.8847C48.1421 33.9556 48.2263 34.0119 48.319 34.0503C48.4116 34.0886 48.511 34.1084 48.6113 34.1084Z" fill="#3F8CF4"/>
<path d="M34.7655 19.9581C34.7655 22.2258 36.6103 24.0704 38.8779 24.0704C41.1456 24.0704 42.9902 22.2257 42.9902 19.9581C42.9902 17.6905 41.1455 15.8457 38.8779 15.8457C36.6103 15.8457 34.7655 17.6905 34.7655 19.9581ZM41.4627 19.9581C41.4627 21.3834 40.3033 22.5428 38.878 22.5428C37.4527 22.5428 36.2933 21.3834 36.2933 19.9581C36.2933 18.5328 37.4527 17.3733 38.878 17.3733C40.3033 17.3733 41.4627 18.5329 41.4627 19.9581ZM52.8274 35.0758C45.1727 35.0758 38.9451 41.3034 38.9451 48.958C38.9451 56.6127 45.1727 62.8401 52.8274 62.8401C60.482 62.8401 66.7095 56.6127 66.7095 48.958C66.7095 41.3034 60.482 35.0758 52.8274 35.0758ZM52.8274 61.3123C46.0148 61.3123 40.4728 55.7702 40.4728 48.958C40.4728 42.1455 46.0148 36.6034 52.8274 36.6034C59.6396 36.6034 65.1817 42.1455 65.1817 48.958C65.1818 55.7702 59.6396 61.3123 52.8274 61.3123Z" fill="#3F8CF4"/>
<path d="M59.4146 46.0125H55.7726V42.3706C55.7726 38.4721 49.8819 38.4774 49.8819 42.3706V46.0125H46.24C42.3421 46.0125 42.3445 51.9033 46.24 51.9033H49.8819V55.5452C49.8819 59.4453 55.7726 59.4388 55.7726 55.5452V51.9033H59.4146C63.3085 51.9033 63.3096 46.0125 59.4146 46.0125ZM59.4146 50.3756H55.0088C54.9085 50.3756 54.8092 50.3953 54.7165 50.4337C54.6238 50.4721 54.5396 50.5284 54.4687 50.5993C54.3977 50.6702 54.3415 50.7544 54.3031 50.8471C54.2647 50.9398 54.245 51.0391 54.245 51.1394V55.5452C54.245 57.4213 51.4097 57.4193 51.4097 55.5452V51.1394C51.4097 51.0391 51.39 50.9398 51.3516 50.8471C51.3132 50.7544 51.2569 50.6702 51.186 50.5993C51.1151 50.5284 51.0309 50.4721 50.9382 50.4337C50.8455 50.3953 50.7462 50.3756 50.6459 50.3756H46.2401C44.3644 50.3756 44.3654 47.5403 46.2401 47.5403H50.6457C50.7461 47.5403 50.8454 47.5206 50.9381 47.4822C51.0307 47.4438 51.1149 47.3876 51.1859 47.3166C51.2568 47.2457 51.3131 47.1615 51.3515 47.0688C51.3898 46.9761 51.4096 46.8768 51.4096 46.7765V42.3707C51.4096 40.495 54.2448 40.4966 54.2448 42.3707V46.7765C54.2448 46.8768 54.2646 46.9761 54.303 47.0688C54.3413 47.1615 54.3976 47.2457 54.4685 47.3166C54.5395 47.3876 54.6237 47.4438 54.7163 47.4822C54.809 47.5206 54.9084 47.5403 55.0087 47.5403H59.4144C61.2934 47.5402 61.2827 50.3756 59.4146 50.3756Z" fill="#3F8CF4"/>
</svg>
